<?xml version="1.0" standalone="no"?>
<!DOCTYPE svg PUBLIC "-//W3C//DTD SVG 20010904//EN"
 "http://www.w3.org/TR/2001/REC-SVG-20010904/DTD/svg10.dtd">
<svg version="1.0" xmlns="http://www.w3.org/2000/svg"
 width="700.000000pt" height="700.000000pt" viewBox="0 0 700.000000 700.000000"
 preserveAspectRatio="xMidYMid meet">
<metadata>
Created by potrace 1.14, written by Peter Selinger 2001-2017
</metadata>
<g transform="translate(0.000000,700.000000) scale(0.100000,-0.100000)"
fill="#000000" stroke="none">
<path d="M780 3440 l0 -1280 220 0 220 0 0 269 0 270 214 275 213 275 307
-528 c169 -291 312 -536 319 -545 11 -15 40 -16 268 -14 l256 3 -428 730
c-235 401 -425 734 -421 740 4 6 192 249 417 539 226 290 412 531 413 537 3 6
-91 8 -259 7 l-263 -3 -515 -669 -516 -669 -3 671 -2 672 -220 0 -220 0 0
-1280z"/>
<path d="M3520 3925 c-396 -80 -657 -404 -677 -840 -10 -218 33 -410 128 -564
180 -292 478 -433 848 -401 315 28 549 168 666 400 31 62 65 159 65 187 0 10
-40 13 -194 13 l-194 0 -26 -55 c-63 -127 -203 -195 -406 -195 -262 0 -400
101 -461 338 -32 125 -69 112 314 112 184 0 477 3 652 7 l318 6 -6 141 c-11
278 -77 460 -225 617 -160 170 -362 250 -626 248 -61 0 -140 -7 -176 -14z
m315 -351 c156 -40 269 -165 282 -313 l6 -61 -432 0 c-350 0 -431 2 -431 13 0
25 32 122 57 170 49 97 153 174 265 196 71 14 190 12 253 -5z"/>
<path d="M4640 3883 c0 -5 155 -410 345 -902 l345 -895 -36 -98 c-63 -172
-134 -243 -268 -267 -33 -6 -124 -11 -203 -11 l-143 0 2 -177 3 -178 60 -12
c106 -22 310 -27 393 -9 186 39 310 144 412 346 26 52 759 1866 887 2198 4 10
-41 12 -217 10 l-222 -3 -231 -623 c-127 -342 -234 -619 -238 -615 -4 5 -105
286 -224 626 l-218 617 -223 0 c-123 0 -224 -3 -224 -7z"/>
</g>
</svg>
